<svg width="16" height="16" viewBox="0 0 16 16" fill="none" xmlns="http://www.w3.org/2000/svg">
<path d="M5.80657 3.19346C5.74409 3.25543 5.69449 3.32916 5.66065 3.4104C5.6268 3.49164 5.60937 3.57878 5.60937 3.66679C5.60937 3.7548 5.6268 3.84193 5.66065 3.92317C5.69449 4.00441 5.74409 4.07815 5.80657 4.14012L8.85991 7.19346C8.92239 7.25543 8.97199 7.32916 9.00583 7.4104C9.03968 7.49164 9.05711 7.57878 9.05711 7.66679C9.05711 7.7548 9.03968 7.84193 9.00583 7.92317C8.97199 8.00441 8.92239 8.07815 8.85991 8.14012L5.80657 11.1935C5.74409 11.2554 5.69449 11.3292 5.66065 11.4104C5.6268 11.4916 5.60937 11.5788 5.60937 11.6668C5.60937 11.7548 5.6268 11.8419 5.66065 11.9232C5.69449 12.0044 5.74409 12.0781 5.80657 12.1401C5.93148 12.2643 6.10045 12.334 6.27657 12.334C6.4527 12.334 6.62167 12.2643 6.74657 12.1401L9.80657 9.08012C10.1811 8.70512 10.3915 8.19679 10.3915 7.66679C10.3915 7.13679 10.1811 6.62846 9.80657 6.25346L6.74657 3.19346C6.62167 3.06929 6.4527 2.99959 6.27657 2.99959C6.10045 2.99959 5.93148 3.06929 5.80657 3.19346Z" fill="#4B4B4B"/>
</svg>
