<svg width="16" height="16" viewBox="0 0 16 16" fill="none" xmlns="http://www.w3.org/2000/svg">
<path d="M14.0007 2.66667H11.934C11.7793 1.91428 11.3699 1.23823 10.7748 0.752479C10.1798 0.266727 9.43545 0.000969683 8.66732 0L7.33398 0C6.56585 0.000969683 5.82153 0.266727 5.22648 0.752479C4.63144 1.23823 4.22205 1.91428 4.06732 2.66667H2.00065C1.82384 2.66667 1.65427 2.7369 1.52925 2.86193C1.40422 2.98695 1.33398 3.15652 1.33398 3.33333C1.33398 3.51014 1.40422 3.67971 1.52925 3.80474C1.65427 3.92976 1.82384 4 2.00065 4H2.66732V12.6667C2.66838 13.5504 3.01991 14.3976 3.6448 15.0225C4.26969 15.6474 5.11692 15.9989 6.00065 16H10.0007C10.8844 15.9989 11.7316 15.6474 12.3565 15.0225C12.9814 14.3976 13.3329 13.5504 13.334 12.6667V4H14.0007C14.1775 4 14.347 3.92976 14.4721 3.80474C14.5971 3.67971 14.6673 3.51014 14.6673 3.33333C14.6673 3.15652 14.5971 2.98695 14.4721 2.86193C14.347 2.7369 14.1775 2.66667 14.0007 2.66667ZM7.33398 1.33333H8.66732C9.08083 1.33384 9.48407 1.46225 9.82173 1.70096C10.1594 1.93967 10.4149 2.27699 10.5533 2.66667H5.44798C5.58637 2.27699 5.84192 1.93967 6.17958 1.70096C6.51723 1.46225 6.92047 1.33384 7.33398 1.33333ZM12.0007 12.6667C12.0007 13.1971 11.7899 13.7058 11.4149 14.0809C11.0398 14.456 10.5311 14.6667 10.0007 14.6667H6.00065C5.47022 14.6667 4.96151 14.456 4.58644 14.0809C4.21136 13.7058 4.00065 13.1971 4.00065 12.6667V4H12.0007V12.6667Z" fill="#026980"/>
<path d="M6.66667 11.9974C6.84348 11.9974 7.01305 11.9272 7.13807 11.8021C7.2631 11.6771 7.33333 11.5075 7.33333 11.3307V7.33073C7.33333 7.15392 7.2631 6.98435 7.13807 6.85932C7.01305 6.7343 6.84348 6.66406 6.66667 6.66406C6.48986 6.66406 6.32029 6.7343 6.19526 6.85932C6.07024 6.98435 6 7.15392 6 7.33073V11.3307C6 11.5075 6.07024 11.6771 6.19526 11.8021C6.32029 11.9272 6.48986 11.9974 6.66667 11.9974Z" fill="#026980"/>
<path d="M9.33268 11.9974C9.50949 11.9974 9.67906 11.9272 9.80409 11.8021C9.92911 11.6771 9.99935 11.5075 9.99935 11.3307V7.33073C9.99935 7.15392 9.92911 6.98435 9.80409 6.85932C9.67906 6.7343 9.50949 6.66406 9.33268 6.66406C9.15587 6.66406 8.9863 6.7343 8.86128 6.85932C8.73625 6.98435 8.66602 7.15392 8.66602 7.33073V11.3307C8.66602 11.5075 8.73625 11.6771 8.86128 11.8021C8.9863 11.9272 9.15587 11.9974 9.33268 11.9974Z" fill="#026980"/>
</svg>
