<svg width="19" height="20" viewBox="0 0 19 20" fill="none" xmlns="http://www.w3.org/2000/svg">
<path d="M18.0227 11.3851L16.4407 5.6884C15.977 4.01951 14.9692 2.55364 13.5776 1.52379C12.1859 0.493945 10.4902 -0.0407771 8.76003 0.00462298C7.02986 0.0500231 5.3645 0.67294 4.02866 1.77436C2.69282 2.87578 1.76318 4.39249 1.38749 6.0834L0.162678 11.5959C0.0273879 12.205 0.0305159 12.8368 0.171831 13.4445C0.313147 14.0522 0.589042 14.6205 0.979146 15.1072C1.36925 15.5939 1.8636 15.9868 2.42571 16.2567C2.98781 16.5266 3.60332 16.6668 4.22678 16.6667H5.15433C5.34543 17.6086 5.85602 18.4555 6.59957 19.0637C7.34313 19.672 8.27392 20.0042 9.23425 20.0042C10.1946 20.0042 11.1254 19.672 11.8689 19.0637C12.6125 18.4555 13.1231 17.6086 13.3142 16.6667H14.0119C14.6537 16.6668 15.2868 16.5183 15.8618 16.2329C16.4368 15.9476 16.9381 15.533 17.3265 15.0216C17.7149 14.5103 17.9799 13.9159 18.1008 13.2851C18.2217 12.6543 18.1945 12.004 18.0227 11.3851ZM9.23425 18.3334C8.71946 18.3313 8.21791 18.17 7.7982 17.8717C7.3785 17.5733 7.06114 17.1525 6.88955 16.6667H11.579C11.4074 17.1525 11.09 17.5733 10.6703 17.8717C10.2506 18.17 9.74903 18.3313 9.23425 18.3334ZM16.0002 14.0126C15.7682 14.3206 15.4676 14.5703 15.1223 14.7417C14.777 14.9131 14.3965 15.0016 14.0111 15.0001H4.22678C3.85274 15 3.4835 14.9159 3.1463 14.7539C2.8091 14.5919 2.51255 14.3562 2.27854 14.0641C2.04453 13.7721 1.87904 13.4312 1.79428 13.0666C1.70952 12.702 1.70765 12.323 1.78882 11.9576L3.01279 6.44423C3.30784 5.11607 4.03802 3.92474 5.08727 3.05961C6.13651 2.19448 7.4446 1.70521 8.80359 1.66958C10.1626 1.63395 11.4945 2.054 12.5875 2.86296C13.6806 3.67192 14.4721 4.82336 14.8362 6.13423L16.4182 11.8309C16.5228 12.202 16.5394 12.5925 16.4669 12.9712C16.3943 13.3499 16.2345 13.7064 16.0002 14.0126Z" fill="#151515"/>
</svg>
